<svg width="45" height="50" viewBox="0 0 45 50" fill="none" xmlns="http://www.w3.org/2000/svg">
<path d="M22.2345 49.9322C35.1407 49.9322 44.2292 43.828 44.2292 35.2655C44.2292 29.5155 39.8334 24.9426 33.3178 23.5937C39.4792 22.3593 43.6459 18.1926 43.6459 12.9739C43.6459 5.40617 34.7865 0.067627 22.2345 0.067627C9.67717 0.067627 0.822998 5.99471 0.822998 14.4426H9.03654C9.03654 10.5103 14.4897 7.69263 22.2345 7.69263C29.974 7.69263 35.4324 9.8645 35.4324 12.9739C35.4324 17.078 27.1615 19.953 15.4897 19.953V27.1093C27.5105 27.1093 36.0157 30.5155 36.0157 35.2655C36.0157 39.3697 30.3282 42.302 22.2345 42.302C14.4897 42.302 9.03654 38.901 9.03654 34.0937H0.822998C0.822998 43.3593 9.67717 49.9322 22.2345 49.9322Z" fill="#257756"/>
</svg>
