<svg width="45" height="48" viewBox="0 0 45 48" fill="none" xmlns="http://www.w3.org/2000/svg">
<path d="M34.5 47.9037H42.5365C42.1823 45.2058 41.6563 42.5079 40.8906 39.81C40.0104 36.6433 38.8385 33.7058 37.3698 30.9506C41.0677 27.8412 44.8229 23.2058 44.8229 17.8673C44.8229 5.43498 35.3802 0.0964355 22.0625 0.0964355C16.3698 0.0964355 3.34896 2.73706 3.23437 2.79435L5.05208 10.4766C5.16667 10.4766 17.4271 8.0131 22.7083 8.0131C30.8021 8.0131 36.901 10.185 36.901 17.8673C36.901 20.2735 34.3229 23.1485 32.6198 24.5548C27.5156 19.6902 19.599 16.6954 12.9688 16.6954C5.52083 16.6954 0.125 20.8621 0.125 28.4298C0.125 36.2319 5.40104 40.6277 13.3229 40.6277C19.3073 40.6277 26.0521 38.2266 30.8021 35.4662C31.7969 37.461 32.6198 39.5756 33.2656 41.9194C33.7917 43.8569 34.2031 45.8516 34.5 47.9037ZM8.04167 28.4298C8.04167 25.086 10.5625 24.6173 13.0885 24.6173C17.3698 24.6173 22.4115 26.4923 25.8177 29.1329C21.5365 31.3621 16.901 32.711 13.3229 32.711C9.85938 32.711 8.04167 31.8881 8.04167 28.4298Z" fill="#257756"/>
</svg>
