<svg width="46" height="48" viewBox="0 0 46 48" fill="none" xmlns="http://www.w3.org/2000/svg">
<path d="M34.7998 47.8073H42.8363C42.4821 45.1094 41.9561 42.4115 41.1904 39.7135C40.3102 36.5469 39.1383 33.6094 37.6696 30.8542C41.3675 27.7448 45.1227 23.1094 45.1227 17.7708C45.1227 5.33854 35.68 0 22.3623 0C16.6696 0 3.64876 2.64062 3.53418 2.69792L5.35189 10.3802C5.46647 10.3802 17.7269 7.91667 23.0081 7.91667C31.1019 7.91667 37.2008 10.0885 37.2008 17.7708C37.2008 20.1771 34.6227 23.0521 32.9196 24.4583C27.8154 19.5938 19.8988 16.599 13.2686 16.599C5.82064 16.599 0.424805 20.7656 0.424805 28.3333C0.424805 36.1354 5.70085 40.5313 13.6227 40.5313C19.6071 40.5313 26.3519 38.1302 31.1019 35.3698C32.0967 37.3646 32.9196 39.4792 33.5654 41.8229C34.0915 43.7604 34.5029 45.7552 34.7998 47.8073ZM8.34147 28.3333C8.34147 24.9896 10.8623 24.5208 13.3883 24.5208C17.6696 24.5208 22.7113 26.3958 26.1175 29.0365C21.8363 31.2656 17.2008 32.6146 13.6227 32.6146C10.1592 32.6146 8.34147 31.7917 8.34147 28.3333Z" fill="white"/>
</svg>
